<svg id="Capa_1" enable-background="new 0 0 510.024 510.024" height="512" viewBox="0 0 510.024 510.024" width="512" xmlns="http://www.w3.org/2000/svg"><g><path d="m510.024 136.396c0-74.439-53.832-135-120-135-30.536 0-59.17 12.691-81.117 35.424-36.197-45.382-102.89-49.097-143.888-9.395-37.743-36.552-98.474-36.896-136.49 1.122-38.037 38.025-38.041 99.594-.001 137.635l122.264 112.499c.129 1.071-1.313-10.901 9.804 81.418 1.717 12.004-4.95 23.534-16.21 28.039-32.691 13.07-44.883 51.854-27.322 81.107l25.21 40.691 25.502-15.801-25.038-40.41c-8.201-13.773-2.28-31.707 12.788-37.732 24.097-9.64 38.384-34.278 34.793-59.961l-9.485-78.803 96.879-89.125c13.413 46.664 46.578 98.315 91.25 110.308l-22.734 56.043c-11.393 23.447-4.957 52.145 15.436 68.466l13.041 10.429c12.196 9.757 13.236 27.915 2.152 39l-16.44 16.44 21.213 21.213 16.44-16.44c23.677-23.675 21.516-62.731-4.627-83.642l-13.038-10.427c-9.585-7.67-12.557-21.208-7.065-32.19l.263-.525 26.901-66.315c64.505-8.454 109.519-97.165 109.519-164.068zm-460.283-86.634c26.315-26.316 68.877-26.33 95.212.006l20.076 20.055 20.062-20.061c42.053-42.053 114.933-12.502 114.933 47.603 0 17.875-6.926 34.694-19.509 47.395-1.494 1.375-109.88 101.094-115.491 106.256l-115.493-106.258c-25.819-26.043-26.295-68.499.21-94.996zm323.551 218.588-.795-.329c-31.316-12.015-60.368-55.616-69.581-103.269 17.494-18.219 27.107-42.067 27.107-67.387 0-11.344-1.928-22.391-5.628-32.767 17.014-21.196 40.552-33.203 65.628-33.203 49.626 0 90 47.103 90 105 .001 69.525-55.724 153.134-106.731 131.955z"/><path d="m64.369 314.456c-4.516-1.004-8.018-4.416-9.14-8.904l-10.79-37.517-28.829 8.299 10.587 36.775c3.971 15.443 16.079 27.167 31.662 30.632 4.516 1.004 8.018 4.416 9.14 8.903l6.844 27.388 29.105-7.273-6.845-27.388c-3.895-15.583-16.055-27.429-31.734-30.915z"/><path d="m489.418 412.22c8.623-13.552 8.845-30.526.579-44.3l-14.526-24.205-25.723 15.438 14.526 24.205c2.38 3.967 2.316 8.855-.168 12.76-8.569 13.47-8.84 30.319-.729 44.046l18.518 33.49 26.254-14.516-18.633-33.699c-.039-.15-4.463-6.355-.098-13.219z"/><path d="m30.024 436.396h30v30h-30z" transform="matrix(.6 -.8 .8 .6 -343.107 216.577)"/><path d="m207.024 427.396h30v30h-30z" transform="matrix(.6 -.8 .8 .6 -265.107 354.577)"/><path d="m282.024 322.396h30v30h-30z" transform="matrix(.6 -.8 .8 .6 -151.107 372.577)"/></g></svg>